<svg xmlns="http://www.w3.org/2000/svg" version="1.1" xmlns:xlink="http://www.w3.org/1999/xlink" width="512" height="512" x="0" y="0" viewBox="0 0 512 512" style="enable-background:new 0 0 512 512" xml:space="preserve" class=""><g><path d="M316.463 75.971h0M487 15.107H25c-5.523 0-10 4.477-10 10v111.727h482V25.107c0-5.523-4.477-10-10-10zM73.46 75.971h121.165M436.539 75.971h0M376.501 75.971h0" style="stroke-width: 20; stroke-linecap: round; stroke-linejoin: round; stroke-miterlimit: 10;" fill="none" stroke="#000000" stroke-width="20" stroke-linecap="round" stroke-linejoin="round" stroke-miterlimit="10" data-original="#000000" class=""></path><path d="M487 496.893H25c-5.523 0-10-4.477-10-10V136.621h482v350.273c0 5.522-4.477 9.999-10 9.999zM315.463 75.971h0" style="stroke-width: 20; stroke-linecap: round; stroke-linejoin: round; stroke-miterlimit: 10;" fill="none" stroke="#000000" stroke-width="20" stroke-linecap="round" stroke-linejoin="round" stroke-miterlimit="10" data-original="#000000" class=""></path><path d="M357.23 342.69h19.242A123.556 123.556 0 0 0 379 317.768c0-8.539-.872-16.874-2.528-24.922H357.23a103.601 103.601 0 0 0-12.029-29.034l13.595-13.595a123.648 123.648 0 0 0-35.245-35.245l-13.595 13.595a103.643 103.643 0 0 0-29.034-12.029v-19.242c-8.048-1.656-16.383-2.528-24.922-2.528s-16.874.872-24.922 2.528v19.242a103.631 103.631 0 0 0-29.034 12.029l-13.595-13.595a123.648 123.648 0 0 0-35.245 35.245l13.595 13.595a103.631 103.631 0 0 0-12.029 29.034h-19.242A123.556 123.556 0 0 0 133 317.768c0 8.539.872 16.874 2.528 24.922h19.242a103.601 103.601 0 0 0 12.029 29.034l-13.595 13.595a123.648 123.648 0 0 0 35.245 35.245l13.595-13.595a103.631 103.631 0 0 0 29.034 12.029v19.242c8.048 1.656 16.383 2.528 24.922 2.528s16.874-.872 24.922-2.528v-19.242a103.601 103.601 0 0 0 29.034-12.029l13.595 13.595a123.648 123.648 0 0 0 35.245-35.245l-13.595-13.595a103.584 103.584 0 0 0 12.029-29.034z" style="stroke-width: 20; stroke-linecap: round; stroke-linejoin: round; stroke-miterlimit: 10;" fill="none" stroke="#000000" stroke-width="20" stroke-linecap="round" stroke-linejoin="round" stroke-miterlimit="10" data-original="#000000" class=""></path><circle cx="256.066" cy="316.854" r="30" style="stroke-width: 20; stroke-linecap: round; stroke-linejoin: round; stroke-miterlimit: 10;" fill="none" stroke="#000000" stroke-width="20" stroke-linecap="round" stroke-linejoin="round" stroke-miterlimit="10" data-original="#000000" class=""></circle></g></svg>