<svg width="5330" height="2988" xmlns="http://www.w3.org/2000/svg" xmlns:xlink="http://www.w3.org/1999/xlink" xml:space="preserve" overflow="hidden"><g transform="translate(4137 383)"><path d="M-1737.73-725.982C-1737.73-842.749-1643.07-937.408-1526.31-937.408L3379.88-937.408C3496.66-937.408 3591.32-842.749 3591.32-725.982L3591.31-725.982C3591.31-609.214 3496.65-514.555 3379.88-514.555L-1526.31-514.561C-1643.07-514.561-1737.73-609.22-1737.73-725.987Z" fill="#FFFFFF" fill-rule="evenodd" transform="matrix(1 0 0 1.00002 -2399.27 554.431)"/><path d="M-1737.73 556.076C-1737.73 439.308-1643.07 344.65-1526.31 344.65L3379.88 344.65C3496.66 344.65 3591.32 439.308 3591.32 556.076L3591.31 556.076C3591.31 672.844 3496.65 767.503 3379.88 767.503L-1526.31 767.497C-1643.07 767.497-1737.73 672.838-1737.73 556.07Z" fill="#FFFFFF" fill-rule="evenodd" transform="matrix(1 0 0 1.00002 -2399.27 554.431)"/><path d="M-1737.73 1838.13C-1737.73 1721.37-1643.07 1626.71-1526.31 1626.71L3379.88 1626.71C3496.66 1626.71 3591.32 1721.37 3591.32 1838.13L3591.31 1838.13C3591.31 1954.91 3496.65 2049.56 3379.88 2049.56L-1526.31 2049.55C-1643.07 2049.55-1737.73 1954.9-1737.73 1838.13Z" fill="#FFFFFF" fill-rule="evenodd" transform="matrix(1 0 0 1.00002 -2399.27 554.431)"/></g></svg>