<svg width="4398" height="4914" xmlns="http://www.w3.org/2000/svg" xmlns:xlink="http://www.w3.org/1999/xlink" xml:space="preserve" overflow="hidden"><defs><clipPath id="clip0"><rect x="-4806" y="-2296" width="4398" height="4914"/></clipPath><linearGradient x1="1555.68" y1="1192.38" x2="2542.91" y2="-155.365" gradientUnits="userSpaceOnUse" spreadMethod="reflect" id="fill1"><stop offset="0" stop-color="#171C8F"/><stop offset="0.5" stop-color="#2D6AD3"/><stop offset="1" stop-color="#189ED9"/></linearGradient><linearGradient x1="1647.09" y1="2682.97" x2="2483.79" y2="839.022" gradientUnits="userSpaceOnUse" spreadMethod="reflect" id="fill2"><stop offset="0" stop-color="#171C8F"/><stop offset="0.5" stop-color="#2D6AD3"/><stop offset="1" stop-color="#189ED9"/></linearGradient></defs><g clip-path="url(#clip0)" transform="translate(4806 2296)"><path d="M1807.37-1225.58 128.887-258.59C-33.3879-165.416-133.427 7.40992-133.378 194.492L-133.378 2128.47C-134.736 2314.27-37.2629 2486.8 122.593 2581.55L1801.07 3548.56C1963.36 3642.21 2163.3 3642.21 2325.59 3548.56L4004.07 2581.55C4165.24 2487.53 4264.29 2315.02 4264.23 2128.47L4264.23 194.492C4265.61 9.2389 4169.11-162.996 4010.37-258.59L2331.89-1225.58C2169.39-1318.4 1969.89-1318.4 1807.37-1225.58Z" fill="#FFFFFF" fill-rule="evenodd" transform="matrix(1.00008 0 0 1 -4672.6 -1000.8)"/><path d="M2049.3 1116.62C2213.32 1116.62 2355.39 1057.68 2471.44 941.386 2587.49 825.122 2646.33 682.854 2646.33 518.496 2646.33 354.189 2587.49 211.909 2471.41 95.5911 2355.34-20.6587 2213.3-79.6051 2049.3-79.6051 1885.24-79.6051 1743.23-20.6587 1627.17 95.6046 1511.11 211.882 1452.25 354.176 1452.25 518.496 1452.25 682.854 1511.11 825.137 1627.18 941.414 1743.26 1057.66 1885.3 1116.62 2049.3 1116.62Z" fill="url(#fill1)" fill-rule="evenodd" transform="matrix(1.00008 0 0 1 -4672.6 -1000.8)"/><path d="M3095.28 1829.15C3091.95 1780.73 3085.15 1727.92 3075.19 1672.15 3065.12 1615.96 3052.14 1562.85 3036.63 1514.31 3020.6 1464.12 2998.81 1414.58 2971.85 1367.09 2943.88 1317.81 2911.03 1274.89 2874.15 1239.58 2835.58 1202.64 2788.39 1172.94 2733.81 1151.27 2679.4 1129.71 2619.11 1118.79 2554.63 1118.79 2529.31 1118.79 2504.83 1129.21 2457.52 1160.05 2428.41 1179.05 2394.37 1201.05 2356.35 1225.37 2323.87 1246.1 2279.82 1265.53 2225.46 1283.12 2172.4 1300.32 2118.54 1309.03 2065.38 1309.03 2012.21 1309.03 1958.37 1300.32 1905.26 1283.12 1850.93 1265.54 1806.91 1246.13 1774.45 1225.38 1736.81 1201.29 1702.74 1179.3 1673.18 1160.02 1625.95 1129.18 1601.44 1118.77 1576.11 1118.77 1511.61 1118.77 1451.36 1129.71 1396.97 1151.29 1342.43 1172.91 1295.21 1202.61 1256.61 1239.61 1219.76 1274.93 1186.88 1317.83 1158.94 1367.09 1132.02 1414.58 1110.2 1464.11 1094.16 1514.32 1078.65 1562.86 1065.7 1615.96 1055.62 1672.15 1045.65 1727.84 1038.88 1780.67 1035.53 1829.2 1032.23 1876.74 1030.56 1926.08 1030.56 1975.91 1030.56 2105.62 1071.73 2210.61 1152.91 2288.04 1233.08 2364.44 1339.17 2403.21 1468.18 2403.21L2662.7 2403.21C2791.71 2403.21 2897.73 2364.46 2977.94 2288.04 3059.14 2210.65 3100.32 2105.66 3100.32 1975.9 3100.27 1925.84 3098.6 1876.45 3095.28 1829.15Z" fill="url(#fill2)" fill-rule="evenodd" transform="matrix(1.00008 0 0 1 -4672.6 -1000.8)"/></g></svg>