<svg height="512" viewBox="0 0 64 64" width="512" xmlns="http://www.w3.org/2000/svg"><g id="Analysis-zoom-data-plant-file"><path d="m60.46 53.38-12.27-12.26a1 1 0 0 0 -1.41 0l-.71.71-7.99-7.99a19.874 19.874 0 0 0 -.43-24.26l2.63-1.58h3.72v-2h-4a1 1 0 0 0 -.51.14l-3.19 1.91a20.01 20.01 0 1 0 -2.46 30.03l7.99 7.99-.71.71a1 1 0 0 0 0 1.41l12.26 12.27a5.006 5.006 0 0 0 7.08-7.08zm-40.71-27.07a4.077 4.077 0 0 0 2.25-1.41 4.077 4.077 0 0 0 2.25 1.41 9.208 9.208 0 0 0 -2.25 2.55 9.208 9.208 0 0 0 -2.25-2.55zm9.55-3.13c-2.22 1.56-4.88 1.74-5.81.41a2.575 2.575 0 0 1 -.07-2.38 6.694 6.694 0 0 1 2.44-2.94 4.656 4.656 0 0 1 2.69-.72 11.2 11.2 0 0 1 2.92.45c-.09 1.29-.48 4-2.17 5.18zm2.18 4.16c-.11 1.49-.6 4.07-2.18 5.18a6.784 6.784 0 0 1 -3.59 1.29 2.587 2.587 0 0 1 -2.22-.88c-.94-1.34.15-3.77 2.37-5.33 1.69-1.18 4.38-.62 5.62-.26zm-9.48-9.51c-1.63 0-3-2.29-3-5 0-2.06 2-3.94 3-4.75 1.17.94 3 2.83 3 4.75 0 2.71-1.37 5-3 5zm-1.42 3.38a2.575 2.575 0 0 1 -.07 2.38c-.93 1.34-3.59 1.15-5.81-.41-1.69-1.18-2.08-3.89-2.17-5.18 1.24-.35 3.92-.91 5.61.27a6.694 6.694 0 0 1 2.44 2.94zm-2.44 6.39c2.22 1.56 3.31 3.99 2.37 5.33a2.567 2.567 0 0 1 -2.22.88 6.784 6.784 0 0 1 -3.59-1.29c-1.69-1.19-2.08-3.9-2.17-5.18 1.24-.36 3.92-.92 5.61.26zm4.86 12.35v-4.81a4.929 4.929 0 0 0 2.6.67h.15a8.684 8.684 0 0 0 4.7-1.66c3.11-2.18 3.05-7.33 3.05-7.55a1.011 1.011 0 0 0 -.64-.92 14.3 14.3 0 0 0 -2.73-.67c.11-.07.22-.12.32-.19 3.11-2.18 3.05-7.34 3.05-7.56a1.008 1.008 0 0 0 -.64-.91 11.908 11.908 0 0 0 -6.32-.54 9.746 9.746 0 0 0 .46-2.98c0-3.8-4.26-6.71-4.44-6.83a1.033 1.033 0 0 0 -1.12 0c-.18.12-4.44 3.03-4.44 6.83a9.746 9.746 0 0 0 .46 2.98 11.908 11.908 0 0 0 -6.32.54 1.008 1.008 0 0 0 -.64.91c0 .22-.06 5.38 3.05 7.56.1.07.21.12.32.19a14.3 14.3 0 0 0 -2.73.67 1.011 1.011 0 0 0 -.64.92c0 .22-.06 5.37 3.05 7.55a8.684 8.684 0 0 0 4.7 1.66h.15a4.929 4.929 0 0 0 2.6-.67v4.81a17.988 17.988 0 1 1 13.54-30.84l-5.05 3.03 1.02 1.72 5.42-3.25a17.975 17.975 0 0 1 -12.93 29.34zm12.39-3.14a19.024 19.024 0 0 0 1.42-1.42l7.85 7.85-1.42 1.42zm23.65 22.23a3.066 3.066 0 0 1 -4.24 0l-11.56-11.55 4.25-4.25 11.55 11.56a2.994 2.994 0 0 1 0 4.24z"/><path d="m50 2h12v2h-12z"/><path d="m50 6h12v2h-12z"/><path d="m50 10h12v2h-12z"/><path d="m27 44h-22a3.009 3.009 0 0 0 -3 3v12a3.009 3.009 0 0 0 3 3h22a3.009 3.009 0 0 0 3-3v-12a3.009 3.009 0 0 0 -3-3zm1 15a1 1 0 0 1 -1 1h-22a1 1 0 0 1 -1-1v-12a1 1 0 0 1 1-1h22a1 1 0 0 1 1 1z"/><path d="m10 48h16v2h-16z"/><path d="m10 52h16v2h-16z"/><path d="m10 56h16v2h-16z"/><path d="m6 48h2v2h-2z"/><path d="m6 52h2v2h-2z"/><path d="m6 56h2v2h-2z"/><path d="m46 2h2v2h-2z"/><path d="m46 6h2v2h-2z"/><path d="m46 10h2v2h-2z"/></g></svg>