<?xml version="1.0" encoding="UTF-8" standalone="no"?>
<!-- Created with Inkscape (http://www.inkscape.org/) -->

<svg
   version="1.1"
   id="svg4677"
   xml:space="preserve"
   width="682.66669"
   height="682.66669"
   viewBox="0 0 682.66669 682.66669"
   xmlns="http://www.w3.org/2000/svg"
   xmlns:svg="http://www.w3.org/2000/svg"><defs
     id="defs4681"><clipPath
       clipPathUnits="userSpaceOnUse"
       id="clipPath4691"><path
         d="M 0,512 H 512 V 0 H 0 Z"
         id="path4689" /></clipPath></defs><g
     id="g4683"
     transform="matrix(1.3333333,0,0,-1.3333333,0,682.66667)"><g
       id="g4685"><g
         id="g4687"
         clip-path="url(#clipPath4691)"><g
           id="g4693"
           transform="translate(84.6142,237.6738)"><path
             d="m 0,0 c 0,-12.808 -10.383,-23.191 -23.191,-23.191 -12.808,0 -23.191,10.383 -23.191,23.191 0,12.809 10.383,23.191 23.191,23.191 C -10.383,23.191 0,12.809 0,0 Z"
             style="fill:none;stroke:#000000;stroke-width:15;stroke-linecap:round;stroke-linejoin:round;stroke-miterlimit:10;stroke-dasharray:none;stroke-opacity:1"
             id="path4695" /></g><g
           id="g4697"
           transform="translate(181.9033,286.4014)"><path
             d="M 0,0 C 0,-12.809 -10.384,-23.191 -23.191,-23.191 -36,-23.191 -46.383,-12.809 -46.383,0 -46.383,12.808 -36,23.191 -23.191,23.191 -10.384,23.191 0,12.808 0,0 Z"
             style="fill:none;stroke:#000000;stroke-width:15;stroke-linecap:round;stroke-linejoin:round;stroke-miterlimit:10;stroke-dasharray:none;stroke-opacity:1"
             id="path4699" /></g><g
           id="g4701"
           transform="translate(279.1914,383.8545)"><path
             d="M 0,0 C 0,-12.808 -10.383,-23.191 -23.191,-23.191 -36,-23.191 -46.383,-12.808 -46.383,0 -46.383,12.809 -36,23.191 -23.191,23.191 -10.383,23.191 0,12.809 0,0 Z"
             style="fill:none;stroke:#000000;stroke-width:15;stroke-linecap:round;stroke-linejoin:round;stroke-miterlimit:10;stroke-dasharray:none;stroke-opacity:1"
             id="path4703" /></g><g
           id="g4705"
           transform="translate(376.4795,335.1279)"><path
             d="m 0,0 c 0,-12.809 -10.383,-23.191 -23.191,-23.191 -12.808,0 -23.192,10.382 -23.192,23.191 0,12.809 10.384,23.191 23.192,23.191 C -10.383,23.191 0,12.809 0,0 Z"
             style="fill:none;stroke:#000000;stroke-width:15;stroke-linecap:round;stroke-linejoin:round;stroke-miterlimit:10;stroke-dasharray:none;stroke-opacity:1"
             id="path4707" /></g><g
           id="g4709"
           transform="translate(473.7675,481.3086)"><path
             d="m 0,0 c 0,-12.809 -10.383,-23.191 -23.19,-23.191 -12.809,0 -23.192,10.382 -23.192,23.191 0,12.809 10.383,23.191 23.192,23.191 C -10.383,23.191 0,12.809 0,0 Z"
             style="fill:none;stroke:#000000;stroke-width:15;stroke-linecap:round;stroke-linejoin:round;stroke-miterlimit:10;stroke-dasharray:none;stroke-opacity:1"
             id="path4711" /></g><g
           id="g4713"
           transform="translate(366.1367,354.4336)"><path
             d="M 0,0 71.592,107.569"
             style="fill:none;stroke:#000000;stroke-width:15;stroke-linecap:round;stroke-linejoin:round;stroke-miterlimit:10;stroke-dasharray:none;stroke-opacity:1"
             id="path4715" /></g><g
           id="g4717"
           transform="translate(276.7363,373.4687)"><path
             d="M 0,0 55.817,-27.956"
             style="fill:none;stroke:#000000;stroke-width:15;stroke-linecap:round;stroke-linejoin:round;stroke-miterlimit:10;stroke-dasharray:none;stroke-opacity:1"
             id="path4719" /></g><g
           id="g4721"
           transform="translate(175.0967,302.8135)"><path
             d="M 0,0 64.52,64.629"
             style="fill:none;stroke:#000000;stroke-width:15;stroke-linecap:round;stroke-linejoin:round;stroke-miterlimit:10;stroke-dasharray:none;stroke-opacity:1"
             id="path4723" /></g><g
           id="g4725"
           transform="translate(82.1582,248.0596)"><path
             d="M 0,0 55.818,27.956"
             style="fill:none;stroke:#000000;stroke-width:15;stroke-linecap:round;stroke-linejoin:round;stroke-miterlimit:10;stroke-dasharray:none;stroke-opacity:1"
             id="path4727" /></g><g
           id="g4729"
           transform="translate(86.5058,151.832)"><path
             d="m 0,0 h -50.165 c -3.464,0 -6.272,-2.808 -6.272,-6.271 V -144.332 H 6.271 V -6.271 C 6.271,-2.808 3.464,0 0,0 Z"
             style="fill:none;stroke:#000000;stroke-width:15;stroke-linecap:round;stroke-linejoin:round;stroke-miterlimit:10;stroke-dasharray:none;stroke-opacity:1"
             id="path4731" /></g><g
           id="g4733"
           transform="translate(183.7939,200.5596)"><path
             d="m 0,0 h -50.164 c -3.464,0 -6.273,-2.809 -6.273,-6.272 V -193.06 H 6.272 V -6.272 C 6.272,-2.809 3.464,0 0,0 Z"
             style="fill:none;stroke:#000000;stroke-width:15;stroke-linecap:round;stroke-linejoin:round;stroke-miterlimit:10;stroke-dasharray:none;stroke-opacity:1"
             id="path4735" /></g><g
           id="g4737"
           transform="translate(281.082,298.4375)"><path
             d="m 0,0 h -50.164 c -3.464,0 -6.273,-2.808 -6.273,-6.271 V -290.937 H 6.272 V -6.271 C 6.272,-2.808 3.464,0 0,0 Z"
             style="fill:none;stroke:#000000;stroke-width:15;stroke-linecap:round;stroke-linejoin:round;stroke-miterlimit:10;stroke-dasharray:none;stroke-opacity:1"
             id="path4739" /></g><g
           id="g4741"
           transform="translate(13.2871,7.5)"><path
             d="M 0,0 H 485.426"
             style="fill:none;stroke:#000000;stroke-width:15;stroke-linecap:round;stroke-linejoin:round;stroke-miterlimit:10;stroke-dasharray:none;stroke-opacity:1"
             id="path4743" /></g><g
           id="g4745"
           transform="translate(335.7881,249.2861)"><path
             d="m 0,0 h -7.582 c -3.464,0 -6.272,-2.809 -6.272,-6.272 V -241.786 H 48.854 V -6.272 C 48.854,-2.809 46.046,0 42.582,0 H 35"
             style="fill:none;stroke:#000000;stroke-width:15;stroke-linecap:round;stroke-linejoin:round;stroke-miterlimit:10;stroke-dasharray:none;stroke-opacity:1"
             id="path4747" /></g><g
           id="g4749"
           transform="translate(481.9306,214.8066)"><path
             d="m 0,0 v 175.072 c 0,3.464 -2.808,6.273 -6.271,6.273 h -50.165 c -3.464,0 -6.272,-2.809 -6.272,-6.273 V -207.307 H 0 V -35"
             style="fill:none;stroke:#000000;stroke-width:15;stroke-linecap:round;stroke-linejoin:round;stroke-miterlimit:10;stroke-dasharray:none;stroke-opacity:1"
             id="path4751" /></g></g></g></g></svg>
