<?xml version="1.0"?>
<svg xmlns="http://www.w3.org/2000/svg" viewBox="0 0 64 64" width="512" height="512"><g id="Layer_47" data-name="Layer 47"><path d="M60,30H53.77a8.93,8.93,0,0,0-17.41,0H4a2,2,0,0,0,0,4H36.36a8.93,8.93,0,0,0,17.41,0H60a2,2,0,0,0,0-4ZM45.06,36.94A4.94,4.94,0,1,1,50,32,4.94,4.94,0,0,1,45.06,36.94Z"/><path d="M4,14H9.42a8.93,8.93,0,0,0,17.41,0H60a2,2,0,0,0,0-4H26.83A8.93,8.93,0,0,0,9.42,10H4a2,2,0,0,0,0,4ZM18.13,7.06A4.94,4.94,0,0,1,23.06,12h0a4.94,4.94,0,0,1-9.87,0h0A4.94,4.94,0,0,1,18.13,7.06Z"/><path d="M60,50H35.71A8.93,8.93,0,0,0,18.3,50H4a2,2,0,0,0,0,4H18.3a8.93,8.93,0,0,0,17.41,0H60a2,2,0,0,0,0-4ZM27,56.94A4.94,4.94,0,1,1,31.94,52,4.94,4.94,0,0,1,27,56.94Z"/></g></svg>
