<svg version="1.1" id="Capa_1" xmlns="http://www.w3.org/2000/svg" xmlns:xlink="http://www.w3.org/1999/xlink" x="0px" y="0px" viewBox="0 0 512 512" style="enable-background:new 0 0 512 512;" xml:space="preserve">
<g>
	<g>
		
			<line style="fill:none;stroke:#000000;stroke-width:15;stroke-linecap:round;stroke-linejoin:round;stroke-miterlimit:10;" x1="368.026" y1="318.996" x2="339.805" y2="294.576"/>
		
			<line style="fill:none;stroke:#000000;stroke-width:15;stroke-linecap:round;stroke-linejoin:round;stroke-miterlimit:10;" x1="398.82" y1="345.641" x2="456.76" y2="395.781"/>
		<path style="fill:none;stroke:#000000;stroke-width:15;stroke-linecap:round;stroke-linejoin:round;stroke-miterlimit:10;" d="&#10;&#9;&#9;&#9;M483.24,418.691l5.27,4.56c10.61,9.19,15.99,22.07,15.99,35c0,11.8-4.48,23.63-13.55,32.7c-19,18.99-50.12,17.87-67.7-2.44&#10;&#9;&#9;&#9;l-77.64-89.72"/>
		
			<line style="fill:none;stroke:#000000;stroke-width:15;stroke-linecap:round;stroke-linejoin:round;stroke-miterlimit:10;" x1="294.617" y1="339.855" x2="319" y2="368.034"/>
		<path style="fill:none;stroke:#000000;stroke-width:15;stroke-linecap:round;stroke-linejoin:round;stroke-miterlimit:10;" d="&#10;&#9;&#9;&#9;M343.328,400.604l57.276-57.276c2.734-2.734,2.734-7.166,0-9.9l-18.385-18.385c-2.734-2.734-7.166-2.734-9.9,0l-57.276,57.276&#10;&#9;&#9;&#9;c-2.734,2.734-2.734,7.166,0,9.9l18.385,18.385C336.162,403.338,340.594,403.338,343.328,400.604z"/>
		
			<line style="fill:none;stroke:#000000;stroke-width:15;stroke-linecap:round;stroke-linejoin:round;stroke-miterlimit:10;" x1="421.463" y1="365.603" x2="365.602" y2="421.464"/>
		<path style="fill:none;stroke:#000000;stroke-width:15;stroke-linecap:round;stroke-linejoin:round;stroke-miterlimit:10;" d="&#10;&#9;&#9;&#9;M207.62,371.911c32.17-3.06,61.91-14.46,87.03-32.03c17.6-12.3,32.93-27.64,45.24-45.24c20.7-29.61,32.85-65.65,32.85-104.52&#10;&#9;&#9;&#9;c0-43.48-15.2-83.41-40.57-114.77"/>
		<path style="fill:none;stroke:#000000;stroke-width:15;stroke-linecap:round;stroke-linejoin:round;stroke-miterlimit:10;" d="&#10;&#9;&#9;&#9;M307.67,50.361c-31.76-26.74-72.77-42.86-117.55-42.86C89.26,7.501,7.5,89.261,7.5,190.121c0,94.96,72.47,172.98,165.12,181.79"/>
		<path style="fill:none;stroke:#000000;stroke-width:15;stroke-linecap:round;stroke-linejoin:round;stroke-miterlimit:10;" d="&#10;&#9;&#9;&#9;M50.83,204.311c7.11,70.66,66.76,125.81,139.29,125.81c77.32,0,140-62.68,140-140s-62.68-140-140-140&#10;&#9;&#9;&#9;c-70.25,0-128.41,51.74-138.46,119.19"/>
	</g>
	<path style="fill:none;stroke:#000000;stroke-width:15;stroke-linecap:round;stroke-linejoin:round;stroke-miterlimit:10;" d="&#10;&#9;&#9;M115.573,140.481h149.091c7.913,0,14.327-6.415,14.327-14.327v0c0-7.913-6.415-14.327-14.327-14.327H115.573&#10;&#9;&#9;c-7.913,0-14.327,6.415-14.327,14.327v0C101.246,134.067,107.66,140.481,115.573,140.481z"/>
	<path style="fill:none;stroke:#000000;stroke-width:15;stroke-linecap:round;stroke-linejoin:round;stroke-miterlimit:10;" d="&#10;&#9;&#9;M115.573,204.447h149.091c7.913,0,14.327-6.415,14.327-14.327v0c0-7.913-6.415-14.327-14.327-14.327H115.573&#10;&#9;&#9;c-7.913,0-14.327,6.415-14.327,14.327v0C101.246,198.033,107.66,204.447,115.573,204.447z"/>
	<path style="fill:none;stroke:#000000;stroke-width:15;stroke-linecap:round;stroke-linejoin:round;stroke-miterlimit:10;" d="&#10;&#9;&#9;M115.573,268.413h149.091c7.913,0,14.327-6.415,14.327-14.327v0c0-7.913-6.415-14.327-14.327-14.327H115.573&#10;&#9;&#9;c-7.913,0-14.327,6.415-14.327,14.327v0C101.246,261.998,107.66,268.413,115.573,268.413z"/>
	
		<line style="fill:none;stroke:#000000;stroke-width:15;stroke-linecap:round;stroke-linejoin:round;stroke-miterlimit:10;" x1="190.119" y1="102.72" x2="190.119" y2="149.588"/>
	
		<line style="fill:none;stroke:#000000;stroke-width:15;stroke-linecap:round;stroke-linejoin:round;stroke-miterlimit:10;" x1="230.123" y1="166.686" x2="230.123" y2="213.554"/>
	
		<line style="fill:none;stroke:#000000;stroke-width:15;stroke-linecap:round;stroke-linejoin:round;stroke-miterlimit:10;" x1="150.115" y1="230.651" x2="150.115" y2="277.52"/>
</g>
<g>
</g>
<g>
</g>
<g>
</g>
<g>
</g>
<g>
</g>
<g>
</g>
<g>
</g>
<g>
</g>
<g>
</g>
<g>
</g>
<g>
</g>
<g>
</g>
<g>
</g>
<g>
</g>
<g>
</g>
</svg>