<svg id="Layer_1" enable-background="new 0 0 90 90" height="512" viewBox="0 0 90 90" width="512" xmlns="http://www.w3.org/2000/svg"><g><path d="m33.756 12.44c.119-.067.088-.109.506.088.418.198 1.082.713 1.734 1.419 1.301 1.424 2.607 3.581 3.287 5.005.021.047.047.088.072.129 1.918 3.306 2.744 5.831 2.77 7.421.027 1.586-.396 2.271-1.744 3.045l-3.486 2.006c-2.268 1.305-3.338 3.644-3.604 5.826-.268 2.183.131 4.304 1.102 5.981l8.59 14.806c.977 1.673 2.627 3.077 4.66 3.939 2.033.863 4.604 1.107 6.871-.197l3.49-1.996c1.348-.774 2.152-.796 3.521.02 1.373.816 3.154 2.786 5.072 6.09.027.048.053.089.084.136.898 1.294 2.121 3.498 2.711 5.333.293.914.408 1.74.371 2.203-.041.458-.051.406-.172.478l-2.645 1.518c-6.65 2.89-12.742 2.24-18.191-.592-5.465-2.833-10.215-7.963-13.521-13.98-.012-.011-.016-.027-.027-.036l-7.24-12.483c-.006-.016-.016-.026-.021-.043-3.584-5.856-5.684-12.514-5.424-18.635.262-6.112 2.754-11.688 8.6-15.976zm2.121-3.32c-1.145-.535-2.723-.692-4.014.052l-2.799 1.611c-.064.036-.121.073-.178.109-6.74 4.932-9.844 11.797-10.146 18.875-.305 7.074 2.059 14.375 5.961 20.757l7.205 12.41c.004 0 .01 0 .01.005l.01.032c3.605 6.533 8.773 12.201 15.074 15.475 6.311 3.275 13.83 4.034 21.494.692.068-.026.131-.057.193-.089l2.801-1.61c1.291-.744 1.943-2.172 2.049-3.425.109-1.258-.146-2.468-.533-3.67-.758-2.375-2.07-4.67-3.162-6.257-2.068-3.544-4.053-6.012-6.357-7.384-2.32-1.382-5.105-1.362-7.377-.057l-3.49 2.001c-1.029.592-2.227.529-3.486-.005-1.264-.536-2.428-1.611-2.867-2.36l-8.59-14.806c-.434-.748-.783-2.292-.621-3.643.166-1.357.709-2.416 1.738-3.009l3.48-2.001c2.273-1.304 3.689-3.689 3.646-6.382-.047-2.675-1.201-5.633-3.266-9.199-.836-1.724-2.172-4-3.85-5.83-.851-.932-1.781-1.757-2.925-2.292z"/></g></svg>